<?xml version="1.0" encoding="UTF-8"?>
<svg id="Layer_1" data-name="Layer 1" xmlns="http://www.w3.org/2000/svg" xmlns:xlink="http://www.w3.org/1999/xlink" viewBox="0 0 1163.29 775.52">
  <defs>
    <style>
      .cls-1 {
        clip-path: url(#clippath);
      }

      .cls-2 {
        fill: none;
      }
    </style>
    <clipPath id="clippath">
      <path class="cls-2" d="M898.52,32.01c-35.13-11.12-72.37-17.54-108.91-12.81-36.54,4.74-72.42,21.54-95.26,50.45-10.89,13.78-18.76,30.09-31.7,41.98-16.41,15.09-38.99,21.29-60.9,25.45-69.69,13.25-143.12,11.31-208.72,38.3-35.7,14.69-67.63,37.49-95.99,63.68-99.98,92.34-156.32,235.74-127.44,368.74,6.75,31.08,18.81,62.58,42.94,83.29,19.95,17.13,46.03,25.08,71.55,31.42,200.14,49.7,412.54,25.43,610.76-31.44,53.26-15.28,107.39-33.71,149.33-69.93,44.7-38.6,71.4-93.89,91.29-149.49,27.21-76.07,42.38-165.88-1.59-233.65-15.18-23.39-36.34-42.21-57.82-59.98-42.85-35.43-73.82-53.8-121.09-83.09-10.79-6.69-12.71-28.96-20.44-39.03-7.73-10.07-22.55-17.8-35.99-23.9"/>
    </clipPath>
  </defs>
  <g class="cls-1">
    <image width="3936" height="2624" transform="scale(.3)" xlink:href="D:\Work\Bujins Batik FYP\RAW\pexels-john-bastian-56677218-10682942.jpg"/>
  </g>
</svg>