<?xml version="1.0" encoding="UTF-8"?>
<svg xmlns="http://www.w3.org/2000/svg" viewBox="0 0 1058.47 795.82">
  <defs>
    <style>
      .cls-1, .cls-2 {
        fill: #fff;
      }

      .cls-3 {
        fill: #7591b7;
      }

      .cls-4 {
        fill: #cce6ff;
      }

      .cls-5 {
        fill: #8ea5c4;
      }

      .cls-6 {
        fill: #04377d;
      }

      .cls-7 {
        isolation: isolate;
      }

      .cls-8, .cls-9, .cls-10 {
        mix-blend-mode: multiply;
      }

      .cls-8, .cls-11 {
        fill: #d9edff;
      }

      .cls-12 {
        fill: #708db5;
      }

      .cls-13 {
        fill: #ff9d8a;
      }

      .cls-14 {
        fill: #59afff;
      }

      .cls-9 {
        fill: #b4c3d8;
      }

      .cls-15 {
        fill: #7f99bd;
      }

      .cls-16 {
        fill: #0084ff;
      }

      .cls-17 {
        fill: #ff5e3f;
      }

      .cls-18 {
        fill: #d4dde9;
      }

      .cls-19 {
        fill: #54adff;
      }

      .cls-20 {
        fill: #2a5590;
      }

      .cls-21 {
        fill: #43699d;
      }

      .cls-22 {
        fill: #4ca9ff;
      }

      .cls-23 {
        fill: #d9e1eb;
      }

      .cls-24 {
        fill: #f5f7fa;
      }

      .cls-25 {
        fill: #6987b1;
      }

      .cls-2 {
        font-family: Quicksand-Bold, 'Quicksand Bold';
        font-size: 28.96px;
        font-weight: 700;
      }

      .cls-26 {
        fill: #5c7daa;
      }
    </style>
  </defs>
  <g class="cls-7">
    <g id="Layer_1" data-name="Layer 1">
      <g>
        <path class="cls-11" d="M181.38,753.88S49.58,660.02,11.63,500.26C-26.31,340.49,31.6,146.77,141.44,48.92c109.84-97.86,307.55-31.95,395.42,49.93l87.87,81.88s83.88,45.93,193.72,41.94c109.84-3.99,207.7,145.79,233.66,263.61,25.96,117.83-35.95,273.6-35.95,273.6l-834.78-5.99Z"/>
        <path class="cls-8" d="M121.47,777.85S29.6,727.92,5.64,612.09c-23.96-115.83,79.88-221.68,89.87-279.59,9.99-57.92-11.98-129.81,79.88-185.73,91.87-55.92,255.63-35.95,317.54-49.93,61.91-13.98,133.8-109.84,257.62-87.87,123.82,21.97,243.64,87.87,249.63,231.66,5.99,143.79-39.94,147.78,5.99,225.67,45.93,77.89,63.91,131.81,41.94,211.69-21.97,79.88-67.9,101.85-67.9,101.85l-858.74-2Z"/>
        <path class="cls-8" d="M313.29,751.89c-5.71-5.99-89.53-173.75,3.81-327.52,93.34-153.78,327.64-135.8,420.97-75.89,93.34,59.91,139.06,137.8,148.58,219.68,9.52,81.88-53.34,209.69-53.34,209.69l-520.03-25.96Z"/>
        <g>
          <g>
            <rect class="cls-22" x="850.74" y="391.58" width="131.81" height="77.89" rx="5" ry="5"/>
            <polygon class="cls-22" points="916.64 499.92 933.7 459.48 899.58 459.48 916.64 499.92"/>
          </g>
          <g>
            <g>
              <polygon class="cls-6" points="916.23 417.15 947.06 417.15 947.06 421.66 962.17 412.95 947.06 404.24 947.06 408.75 916.23 408.75 916.23 417.15"/>
              <polygon class="cls-1" points="962.17 434.87 931.34 434.87 931.34 430.36 916.23 439.08 931.34 447.79 931.34 443.28 962.17 443.28 962.17 434.87"/>
            </g>
            <g>
              <path class="cls-6" d="M897.31,442.8l-1.47,.53s-4.57-5.22-6.95-10.91c-2.37-5.69-2.46-12.63-2.46-12.63l1.07-.45-6.52-15.6c-1.16,.91-2.27,2.08-3.16,3.59-3.69,6.23-3.32,15.8,.39,25.14s7.68,17.68,14.92,22.92c4.27,3.09,7.93,3.63,10.77,3.18l-6.6-15.79Z"/>
              <path class="cls-6" d="M901.99,440.97l-2.03,.74,6.67,15.97c.75-.25,1.43-.55,2.02-.87,1.72-.94,2.48-3.02,1.75-4.84l-3.49-8.78c-.77-1.95-2.96-2.93-4.93-2.21Z"/>
              <path class="cls-6" d="M886.09,401.01c-.82,.3-1.71,.7-2.61,1.23l6.66,15.93,2.24-.94c1.94-.81,2.88-3.03,2.12-4.99l-3.5-8.98c-.76-1.95-2.94-2.96-4.9-2.25Z"/>
            </g>
          </g>
        </g>
        <path class="cls-16" d="M282.15,724.93v-179.74s-2-48.43,23.47-62.41c25.46-13.98,132.81-6.49,132.81-6.49v248.64h-156.27Z"/>
        <g>
          <path class="cls-13" d="M471.96,308.04s-6.49,54.42-8.99,58.91l-2.5,4.49-12.48,8.49s23.97,33.95,53.42,39.44c29.46,5.49,26.96-11.98,26.96-11.98l-4.49-9.49,5.99-51.92s-53.42-24.46-57.92-37.94Z"/>
          <path class="cls-1" d="M432.52,384.42l19.47-8.49s12.48,20.47,41.44,32.45,29.46,4.99,30.95,0c1.5-4.99-.5-10.48-.5-10.48l2.14-17.48,11.58,3.86,40.2,325.17-103.35,4.99-41.94-330.02Z"/>
          <path class="cls-6" d="M527.88,380.76s6.99,16.14,13.48,54.09c6.49,37.94,12.48,101.85,13.98,145.79s2.5,144.29,2.5,144.29h130.31c1.5,0,10.48-49.43,10.48-49.43,0,0-56.92-48.76-59.91-56.75-2-5.33-1-104.01-9.49-149.45-8.49-45.43-19.47-54.59-42.44-65.9-23.74-11.7-58.91-22.63-58.91-22.63Z"/>
          <path class="cls-3" d="M595.78,667.72c-.67,0-1.21-.54-1.21-1.21,0-3.57-.63-54.29-1.25-103.33-.62-49.05-1.25-99.78-1.25-103.36,0-.67,.54-1.21,1.21-1.21s1.21,.54,1.21,1.21c0,3.57,.63,54.29,1.25,103.33,.62,49.05,1.25,99.78,1.25,103.36,0,.67-.54,1.21-1.21,1.21Z"/>
          <path class="cls-6" d="M336.16,655.53l-1,69.4h151.78s6.49-58.91,3.99-64.41c-2.5-5.49-154.77-4.99-154.77-4.99Z"/>
          <g class="cls-10">
            <path class="cls-15" d="M505.08,365.45c6.19,4.99,14.65,8.99,21.23,11.41l3.56-30.88s-40.13-18.38-53.74-32.06c2.84,15.54,9.84,36.13,28.95,51.53Z"/>
          </g>
          <path class="cls-13" d="M576.8,206.69s10.48,17.97,12.48,39.94c2,21.97,0,78.39-17.97,102.35-17.97,23.96-55.42,16.98-72.39,2.5-15.58-13.29-30.95-27.96-34.95-56.92-3.99-28.96,8.49-83.88,43.94-95.36,35.45-11.48,68.9,7.49,68.9,7.49Z"/>
          <g>
            <path class="cls-13" d="M621.84,693.54s-1.76,0-4.44-.07c-.63-.02-1.33,0-2.05-.02-2.58-.07-5.72-.14-8.88-.24-.7-.02-1.42-.05-2.12-.07-3.14-.07-5.82,.31-8.33,.17h-.07c-.53-.02-1.3,.05-1.93,.07-.31,.02-.6,.05-.8,.02-1.45-.27-1.74-.6-3.31-1.3-2.03-.92-29.46-7.05-51.79-6.9-22.3,.1-42.3,1.62-45.56-1.11-3.28-2.78-5.26-30.79,13.78-32.63l23.41,8.88s53.45-6.35,73.05,8.11c19.64,14.45,19.04,25.1,19.04,25.1Z"/>
            <path class="cls-6" d="M595.95,693.3c-.53-.02-1.3,.05-1.93,.07-.48-.77-1.5-2.17-2.05-2.75-6.03-6.15-20.61-10.14-25.89-11.41-.48-.12-.8-.6-.68-1.09,.1-.48,.6-.77,1.11-.68,7.7,1.86,24.03,6.61,28.67,14.41,.14,.22,.53,.97,.77,1.45Z"/>
            <path class="cls-6" d="M606.48,693.2c-.7-.02-1.42-.03-2.12-.08-6.59-12.01-17.36-15.46-30.68-19.75l-.79-.26c-.45-.16-.73-.67-.58-1.15,.16-.45,.65-.73,1.15-.58l.77,.26c14.08,4.52,25.41,8.15,32.25,21.55Z"/>
            <path class="cls-6" d="M617.41,693.47c-.63-.02-1.33,0-2.05-.03-4-8.4-17.22-22.46-34.71-25.73-.5-.08-.83-.55-.75-1.06,.11-.48,.58-.81,1.06-.72,18.02,3.38,32.56,18.1,36.45,27.54Z"/>
          </g>
          <path class="cls-6" d="M475.95,269.84s10.98-5.24,18.72-19.97c7.74-14.73,6.74-27.96,6.74-27.96,0,0,13.98-2.25,34.95,3.99,20.97,6.24,45.93,14.73,66.9,2.75,20.97-11.98,20.97-31.2,10.73-39.19-11.46-8.95-34.2-3.49-34.2-3.49,0,0,8.74-8.49,3.99-13.48-4.74-4.99-21.97,1.5-21.97,1.5,0,0-20.97-16.73-60.66-14.73-39.69,2-58.66,29.71-60.91,60.66-2.25,30.95,8.99,61.91,8.99,61.91l26.71-11.98Z"/>
          <g class="cls-10">
            <path class="cls-15" d="M556.48,277.35c-2.25,5.55-2.19,11.98-2.76,17.87-.44,4.58-1.28,9.92,2.91,13.01,2,1.48,11.48,5.46,6.61,8.69-1.86,1.23-4.97,.89-7.09,.8-1.46-.07-2.93-.13-4.38-.24-1.57-.12-3.1-.59-4.67-.6-.92,0-1.2,1.22-.46,1.69,2.52,1.58,6.22,2.06,9.16,2.18,2.94,.11,4.93-.02,7.58-1.33,1.63-.81,3.2-1.95,3.46-3.88,.29-2.18-1.34-4.13-2.98-5.35-1.89-1.4-4.2-2.05-6.11-3.42-2.64-1.89-2.43-5.08-2.24-8.03,.45-7.1,2.08-14.07,2.71-21.14,.1-1.08-1.4-1.08-1.74-.24h0Z"/>
          </g>
          <path class="cls-6" d="M576.89,293.95c-.74,4.21-3.81,7.19-6.84,6.65-3.03-.54-4.89-4.38-4.14-8.59,.74-4.21,3.81-7.19,6.84-6.65,3.03,.54,4.89,4.38,4.14,8.59Z"/>
          <path class="cls-6" d="M538.68,290.61c-.68,4.54-3.88,7.83-7.15,7.34-3.27-.49-5.38-4.56-4.7-9.1,.68-4.54,3.88-7.83,7.15-7.34s5.37,4.56,4.7,9.1Z"/>
          <path class="cls-6" d="M567.99,276.6c2.33,.39,4.69,0,7.04,.16,.57,.04,1.12,.12,1.69,.18,.4,.04-.75-.12-.19-.03,.12,.02,.24,.04,.36,.06,.29,.05,.59,.11,.88,.18,.5,.12,.99,.31,1.49,.42,.46,.1,.96,.21,1.42,.19,.26-.03,.51-.07,.77-.1-.16,.03-.32,.06-.48,.09,0,.06,.88-.08,.96-.1,1.34-.31,2.16-1.86,1.79-3.15-.11-.37-.27-.71-.51-1.02-.1-.13-.2-.26-.31-.39,.09,.11,.19,.22,.28,.32-.1-.14-.2-.28-.31-.41-.13-.22-.31-.4-.53-.53-.19-.14-.37-.29-.56-.43-.62-.43-1.43-.68-2.16-.87-1.39-.36-2.85-.54-4.29-.55-1.43,0-2.84,.14-4.25,.34-1.24,.17-2.63,.59-3.64,1.35-.78,.58-1.26,1.33-1.13,2.35,.11,.85,.78,1.81,1.69,1.96h0Z"/>
          <path class="cls-6" d="M541.36,269.92c-.32-.19-.64-.35-.97-.5-.28-.13-1.06-.53-.47-.22-.21-.12-.42-.23-.64-.34-.97-.49-1.97-.81-3.02-1.08-2.28-.58-4.68-.73-7.01-.48-2.49,.26-4.77,.87-6.93,2.17-.31,.18-.62,.36-.87,.62-.17,.22-.34,.44-.5,.66,.05-.07,.09-.14,.14-.22-.67,.47-1.05,1.23-1.05,2.03,0,.78,.41,1.42,1.08,1.8,.81,.45,1.59,.24,2.43,.02h-1.26c.69,.11,1.18,.14,1.88-.02,.02,0,.67-.17,.25-.08-.4,.08,.68-.08,.8-.1,.14-.02,.89-.09,.1-.02,.15-.01,.29-.03,.44-.05,.38-.05,.75-.09,1.13-.12,1.65-.13,3.29-.2,4.94-.26,1.53-.05,3.09-.06,4.62,0,.66,.03,1.31,.05,1.97,.07,.37,.01,.21,.07-.04-.01,.13,.04,.28,.07,.41,.11,.27,.08,.54,.16,.81,.27,1.06,.41,2.34-.36,2.74-1.34,.43-1.07,.06-2.29-.95-2.9h0Z"/>
          <path class="cls-6" d="M553.21,339.32c2.29-4.61,6.46-7.98,11.28-10.15-4.18-.43-23.93-2.25-28.92,.58-5.58,3.17,1.03,15.9,12.58,16.54,1.21,.07,2.31-.03,3.37-.2,.1-2.32,.63-4.62,1.69-6.76Z"/>
          <path class="cls-23" d="M461.97,312.53s2,7.74,13.48,16.73c11.48,8.99,28.13,15.56,28.13,15.56l1.33-5.82s-17.22-7.49-25.21-15.73c-7.99-8.24-8.99-12.73-8.99-12.73l-8.74,2Z"/>
          <path class="cls-6" d="M506.91,334.68c9.24-.43,14.4,6.88,15.04,11.6,.64,4.73-3.8,10.03-14.18,5.37-12.9-5.78-10.1-16.55-.86-16.98Z"/>
          <path class="cls-23" d="M469.21,255.36s3.99-28.69,23.22-48.18c36.7-37.2,67.9-34.95,67.9-34.95,0,0-.25-5.24-11.98-9.24-11.02-3.75-15.98-1.75-15.98-1.75,0,0-30.21,2.5-55.67,30.7-25.46,28.21-28.21,64.16-28.21,64.16l20.72-.75Z"/>
          <g>
            <path class="cls-1" d="M466.47,251.87c-24.04-4.07-37.45,14.73-38.44,33.7-1,18.97,12.79,33.4,31.2,31.95,41.44-3.25,36.7-60.66,7.24-65.65Z"/>
            <path class="cls-12" d="M454.49,299.09c-6.35,0-11.71-3.19-14.78-8.81-3.28-6.02-3.01-13.42,.7-18.87,.28-.41,.84-.52,1.26-.24,.41,.28,.52,.84,.24,1.26-3.33,4.89-3.57,11.55-.61,16.98,2.81,5.15,7.77,8.07,13.65,7.86,5.49-.15,10.15-2.66,13.11-7.08,3.38-5.04,4.16-12,1.98-17.73-2.16-5.68-8.08-9.56-13.47-8.86-.49,.06-.95-.28-1.02-.78-.07-.49,.28-.95,.78-1.02,6.3-.84,12.91,3.46,15.4,10.01,2.38,6.26,1.53,13.87-2.17,19.38-3.3,4.92-8.47,7.71-14.56,7.88-.17,0-.34,0-.51,0Z"/>
          </g>
          <path class="cls-6" d="M437.01,377.44s-72.89,17.97-98.36,46.93c-25.46,28.96-37.45,171.75-37.94,198.21s17.97,37.45,28.96,44.93c10.98,7.49,59.41,20.97,98.36,22.97,38.94,2,75.89,0,75.89,0,0,0-.13-8.49,5.87-20.97,5.56-11.58,12.61-13.98,12.61-13.98l-33.45-11.98s-5.86-104.96-14.98-155.77c-10.48-58.41-36.95-110.34-36.95-110.34Z"/>
          <path class="cls-3" d="M557.83,626.78c-.17,0-.33-.03-.49-.1-.61-.27-.89-.98-.62-1.59,6.83-15.41,13.91-45.66,17.89-66.88l.33-1.72c1.21-6.24,2.71-14.01-.29-19.37-1.53-2.73-4.98-8.67-8.3-14.37-3.44-5.92-6.7-11.51-7.6-13.18-1.76-3.26,3.78-11.97,11.79-23.91,2.16-3.23,4.03-6.01,5.13-7.9,2.86-4.94,.95-9.47-1.25-14.71l-.75-1.81c-2-4.9-4.27-9.81-6.46-14.55-.9-1.94-1.79-3.88-2.68-5.83-1.17-2.58-2.35-5.21-3.54-7.86-7.06-15.73-14.35-31.99-23.69-47.7-.34-.57-.15-1.31,.42-1.65,.57-.34,1.31-.15,1.65,.42,9.41,15.83,16.74,32.16,23.82,47.95,1.19,2.65,2.37,5.27,3.53,7.85,.88,1.94,1.78,3.88,2.67,5.82,2.21,4.77,4.48,9.7,6.5,14.66l.74,1.78c2.25,5.34,4.57,10.87,1.11,16.85-1.13,1.96-3.02,4.78-5.21,8.04-4.18,6.23-12.87,19.19-11.67,21.42,.88,1.64,4.13,7.21,7.56,13.11,3.33,5.72,6.78,11.66,8.32,14.4,3.43,6.13,1.83,14.38,.55,21l-.33,1.7c-1.45,7.73-9.14,47.3-18.06,67.42-.2,.45-.64,.72-1.1,.72Z"/>
          <path class="cls-3" d="M486.69,631.02c-.31,0-.62-.12-.86-.36-5.67-5.72-33.03-53.09-35.07-62-1.12-4.88,1.68-17.25,4.39-29.21,2.1-9.27,4.27-18.85,3.65-21.45-.92-3.88-7.92-9.59-14.68-15.12-8.17-6.68-16.62-13.58-18.26-19.8-1.86-7.07-.27-51.32,.78-80.6,.38-10.53,.68-18.84,.68-21.81,0-.67,.54-1.21,1.21-1.21h0c.67,0,1.21,.54,1.21,1.21,0,3.01-.3,11.35-.68,21.9-.98,27.37-2.63,73.17-.86,79.9,1.44,5.46,9.95,12.41,17.46,18.54,7.4,6.05,14.39,11.76,15.5,16.43,.75,3.14-1.29,12.13-3.64,22.54-2.52,11.16-5.38,23.8-4.39,28.14,2,8.73,28.86,55.22,34.43,60.83,.47,.47,.47,1.24,0,1.71-.23,.23-.54,.35-.85,.35Z"/>
          <path class="cls-3" d="M388.58,610.3c-.06,0-.11,0-.17-.01-.66-.09-1.12-.7-1.03-1.36,.89-6.28,14.74-131.28,15.37-140.85,.04-.67,.62-1.19,1.28-1.12,.66,.04,1.17,.62,1.12,1.28-.64,9.59-14.5,134.74-15.39,141.03-.08,.6-.6,1.04-1.19,1.04Z"/>
          <path class="cls-3" d="M487.93,644.25c-.15,0-.31-.03-.45-.09-3.07-1.24-16.63-5.82-33.79-11.61-34.65-11.69-82.1-27.69-91.13-32.38-.59-.31-.82-1.03-.51-1.63,.31-.59,1.03-.83,1.63-.51,8.86,4.6,58.16,21.23,90.78,32.23,17.21,5.8,30.8,10.39,33.93,11.66,.62,.25,.91,.95,.66,1.57-.19,.47-.64,.75-1.12,.75Z"/>
          <path class="cls-3" d="M471.27,694.03c-30.49,0-89.61-5.5-134.52-21.38-.63-.22-.96-.91-.74-1.54,.22-.63,.92-.96,1.54-.74,56.73,20.07,136.1,23.5,150.86,20.18,.65-.14,1.29,.27,1.44,.91,.15,.65-.26,1.3-.91,1.44-3.2,.72-9.38,1.12-17.67,1.12Z"/>
        </g>
        <g>
          <g>
            <g>
              <path class="cls-14" d="M122.25,394.27c9.47,8.33,21.46,13.66,29.76,23.29,3.27,3.79,6.21,7.82,9.24,11.79,2.21,2.89,8.1,7.69,9.06,11.32,.42,1.6,.33-.57-.09-2.17-.02-.07-.05-.13-.07-.2-.83-7.36-1.42-14.74-1.68-22.15-.26-7.38,.2-14.79-.26-22.16-.65-10.4-3.9-20.47-12.4-26.98-4.15-3.18-9.49-5.12-13.31-8.65-3.63-3.35-2.17-7.2-.04-10.94,1.99-3.5,4.41-6.94,5.19-10.97,.88-4.58-.84-9.3-3.16-13.2-4.94-8.3-15.91-17.56-26.29-16.31-8.66,1.04-9.64,11.02-9.52,17.99,.12,6.77,.79,13.51,.86,20.28,.07,6.96-1.12,13.78-1.21,20.7-.17,11.78,5.27,20.75,13.93,28.36Z"/>
              <path class="cls-14" d="M210.21,502.34c2.64-6.29,5.66-12.16,9.38-17.88,5.1-7.84,10.76-15.49,14.19-24.27,3.5-8.97,2.99-18.56,3.33-28,.25-6.94,2.31-13.86,1.76-20.82-.27-3.34-2.19-8.73-6.51-8.18-3.36,.43-5.36,4.6-6.65,7.25-2.25,4.64-3.82,9.58-5.49,14.45-.65,1.9-1.28,3.84-2.1,5.68-.48,1.07-2.01,3.68-3.45,3.32-2.45-.61-.23-10.62,.14-12.4,1.83-8.91,4.59-17.19,4.97-26.36,.56-13.29-.48-29.11-13.48-36.38-3.4-1.9-7.7-3.03-10.93-.19-3.19,2.8-4.09,7.66-4.56,11.66-1.45,12.28,1.44,23.9,5.37,35.45,3.25,9.54,7.12,19.38,7.4,29.58,.27,9.82-4.83,18.52-7.23,27.79-3.82,14.78-3.03,22.61-3.05,27.4-.02,6,.19,11.93,.63,17.91,.4,5.5,.88,10.99,1.55,16.46,.14,1.11,.26,2.26,.41,3.42-2.11-5.09-2.85-10.91-4.6-16.02-3.11-9.08-6.72-17.98-9.7-27.1-2.46-7.54-4.79-15.13-8.04-22.38-3.05-6.8-6.74-13.99-12.43-18.98-3.44-3.02-7.61-4.78-12.21-4.74-2.94,.02-5.59,1.04-8.4,1.78-3.46,.91-6.18,.6-9.03-1.59-9.32-7.16-12.15-20-19.05-29.07-5.14-6.76-17.35-18.29-26.33-10.92-4.76,3.91-6.07,11.47-5.82,17.27,.31,7.27,3.49,13.92,7.28,20,4.03,6.47,9.22,12.26,12.92,18.9,2.19,3.93,2.53,7.69,2.18,12.12-.33,4.17-.69,8.21,.73,12.24,4.27,12.09,17.61,10.4,27.98,10.72,7.26,.22,15.05,1.3,21.94,3.62,7.96,2.68,13.14,7.86,15.99,15.74,2.06,5.7,3.16,12.17,7.04,17.02,1.83,2.28,4.24,3.96,6.9,5.13,4.05,1.79,16.38,2.57,16.47,1.44,.31-3.77,2.09-7.75,3.21-11.33,2.1-6.71,4.57-13.26,7.29-19.74Z"/>
              <path class="cls-14" d="M267.47,500.06c-1.07-6.91-.87-14.53-4.14-20.88-.23-.45-.85-.57-1.28-.33-2.35,1.3-2.44,5.09-2.63,7.41-.32,3.85-.08,7.71-.56,11.55-.83,6.75-2.39,13.7-4.82,20.06-2.75,7.19-7.75,11.27-15.02,13.52-4.67,1.44-9.25,2.7-13.14,5.8-3.49,2.77-5.91,6.6-7.71,10.63-4.85,10.87-7.16,23.03-9.41,34.65-1.51,7.82-2.75,15.68-4.65,23.43-1.9,7.74-3.94,15.44-5.03,23.35-.18,.4-.38,.79-.55,1.2-.5,1.18,1.35,1.82,1.99,.84,7.5-11.54,16.63-21.9,29.09-28.26,5.63-2.87,13.1-3.47,17.8-7.98,3.57-3.43,4.06-8.67,3.53-13.33-.7-6.13-3.64-11.18-6.7-16.41-1.68-2.87-3.67-5.95-2.99-9.43,.64-3.29,3.38-5.71,6.09-7.4,5.18-3.22,11.24-4.66,15.48-9.3,3.94-4.31,6.12-9.66,6.56-15.46,.58-7.73-.75-16.02-1.93-23.65Z"/>
              <path class="cls-14" d="M165.24,539.91c-6.62-8.52-14.6-15.87-23.59-21.84-4.79-3.18-16.1-9.47-18.39-.07-1.34,5.51,4.05,10.92,7.59,14.37,5.33,5.19,11.49,9.66,15.99,15.64-5.57,1.78-11.38,2.12-16.22,5.97-5.73,4.56-8.29,13.36-2.62,18.94,2.77,2.72,6.44,4.39,9.88,6.06,4.48,2.17,9.04,4.13,13.63,6.05,9.91,4.14,19.95,8.34,28.4,15.12,8.62,6.91,16.71,18.6,17.4,29.88,.07,1.08-.34,.09,.3-.4,.35,.31,1.53-.25,1.53-.88-.18-16.73-3.18-32.67-10.02-48-6.34-14.21-14.33-28.53-23.89-40.84Z"/>
            </g>
            <path class="cls-20" d="M142.39,384.13c3.65,7.57,7.47,14.98,11.52,22.36,3.9,7.11,7.8,14.17,10.71,21.76,3.59,9.34,7.36,18.54,11.16,27.8,3.95,9.62,7.48,19.43,10.31,29.44,5.52,19.54,9.63,39.66,11.66,59.87,1.03,10.28,1.5,20.62,1.22,30.95-.22,8.07-1.13,16.06-1.89,24.08-.79,8.35-1.36,16.81-.66,25.19,.58,7.01,1.7,15.34,7.14,20.34,1.06,.98,2.57-.24,1.95-1.51-6.46-13.25-6.1-27.7-4.86-42.07,.68-7.93,1.63-15.82,1.9-23.79,.34-10.13-.06-20.28-1.01-30.38-1.87-19.84-5.83-39.44-10.96-58.67-2.63-9.87-5.89-19.54-9.64-29.03-3.76-9.52-8.1-18.77-11.75-28.33-6.59-17.29-16.63-32.63-25.52-48.75-.46-.84-1.68-.1-1.27,.74h0Z"/>
            <path class="cls-20" d="M198.04,525.55c1.04-12.6,2.16-24.72,6.41-36.74,1.98-5.6,4.38-11.05,6.29-16.68,1.58-4.65,3.94-11.03,2.73-15.97-.14-.55-.94-.52-1.09,0-.81,2.82-.72,5.92-1.31,8.81-.57,2.82-1.33,5.59-2.21,8.32-1.86,5.82-4.3,11.4-6.41,17.13-4.08,11.07-6.17,23.33-5.28,35.12,.04,.56,.82,.56,.87,0h0Z"/>
            <path class="cls-20" d="M125.06,453.17c5,12.08,20.03,12.77,30.97,15.48,7.82,1.93,13.59,7.15,17.73,13.92,4.54,7.41,7.6,16.1,10.13,24.37,.03,.09,.17,.05,.15-.04-3.06-14.48-7.45-31.91-22.37-38.64-11.96-5.4-27.72-2.69-35.36-15.6-.38-.64-1.54-.21-1.24,.52h0Z"/>
            <path class="cls-20" d="M190.14,523.64c.59,.8,1.14,1.64,1.75,2.43,.3,.39,.61,.76,1,1.07,.39,.32,.85,.72,1.39,.71,.22,0,.38-.25,.26-.45-.25-.4-.69-.65-1.04-.95-.36-.32-.72-.63-1.07-.95-.7-.66-1.34-1.38-2.02-2.05-.13-.13-.38,.05-.27,.21h0Z"/>
            <path class="cls-20" d="M158.88,561.95c8.62,7.08,16.58,15.45,22.9,24.63,3.02,4.39,5.81,9.03,8.34,13.72,2.76,5.12,4.58,10.53,6.74,15.9,.16,.41,.91,.42,.85-.12-1.2-11.36-8.39-21.09-14.15-30.54-2.99-4.91-6.71-8.87-10.72-12.96-4.13-4.23-8.34-8.23-13.19-11.64-.59-.41-1.34,.54-.78,1.01h0Z"/>
            <path class="cls-20" d="M227.55,548.58c-4.15,2.35-4.29,8.91-4.37,13.1-.16,8.05,1.84,15.61-1.7,23.28-3.19,6.93-8.29,12.71-12.29,19.14-3.75,6.02-7.45,13.72-7.37,20.97,0,.42,.65,.65,.84,.23,1.51-3.29,2.05-7.03,3.13-10.48,1.22-3.88,2.92-7.4,5.12-10.81,3.86-5.98,8.59-11.41,11.72-17.84,3.3-6.77,2.81-13.48,2.6-20.82-.14-4.68-.61-12.2,3.17-15.68,.59-.54-.17-1.48-.85-1.1h0Z"/>
          </g>
          <path class="cls-1" d="M199.77,625.82c-16.73-.23-48.6-.42-48.6-.42l7.89,58.55c1.77,13.17,13.02,23,26.31,23h28.81c13.29,0,24.53-9.83,26.31-23l7.89-58.55s-31.87,.18-48.6,.42Z"/>
        </g>
        <g>
          <g>
            <polygon class="cls-24" points="1008.42 518.23 912.98 707.29 634.72 709.28 720.59 515.57 1008.42 518.23"/>
            <path class="cls-18" d="M450.04,708.11l.05-15.13h180.13l82.88-181.73h288.08l7.24,6.99h-281.42l-86.12,189.72s-190.83-.34-190.83,.15Z"/>
            <path class="cls-18" d="M863.93,622.55c-3.14,9.43-20.2,16.71-38.11,16.26s-29.87-8.46-26.72-17.89c3.14-9.43,20.2-16.71,38.11-16.26,17.9,.45,29.87,8.46,26.72,17.89Z"/>
          </g>
          <path class="cls-1" d="M640.88,709.16c-.17,0-.34-.04-.5-.11-.61-.28-.87-.99-.6-1.6l86.44-190.43h282.2c.67,0,1.21,.54,1.21,1.21s-.54,1.21-1.21,1.21h-280.65l-85.8,189.02c-.2,.44-.64,.71-1.1,.71Z"/>
        </g>
        <g>
          <g>
            <rect class="cls-21" x="106.49" y="722.43" width="331.01" height="73.39"/>
            <rect class="cls-25" x="435.62" y="722.43" width="595.56" height="73.39"/>
          </g>
          <polygon class="cls-9" points="437.51 722.43 435.62 722.43 106.49 722.43 106.49 735.91 435.62 735.91 437.51 735.91 1031.18 735.91 1031.18 722.43 437.51 722.43"/>
          <rect class="cls-26" x="90.52" y="707.95" width="361.47" height="17.97"/>
          <rect class="cls-5" x="450.1" y="707.95" width="595.56" height="17.97"/>
        </g>
        <g>
          <rect class="cls-1" x="223.99" y="238.36" width="143.04" height="84.52" rx="5.43" ry="5.43"/>
          <polygon class="cls-1" points="400.33 280.62 356.44 262.11 356.44 299.14 400.33 280.62"/>
          <g>
            <circle class="cls-6" cx="267.79" cy="280.62" r="8.08"/>
            <circle class="cls-6" cx="295.51" cy="280.62" r="8.08"/>
            <circle class="cls-6" cx="323.23" cy="280.62" r="8.08"/>
          </g>
        </g>
        <g>
          <path class="cls-22" d="M948.84,58.9h-269.77c-17.33,0-31.37,14.04-31.37,31.37v127.98c0,17.33,14.04,31.37,31.37,31.37h24.18c.68,11.6-.98,28.86-10.67,50.93,31.17-14.38,49.11-35.96,58.49-50.93h197.77c17.33,0,31.37-14.05,31.37-31.37V90.27c0-17.33-14.05-31.37-31.37-31.37Z"/>
          <path class="cls-1" d="M833.76,119.9h-133.8c-3.68,0-6.66-2.98-6.66-6.66h0c0-3.68,2.98-6.66,6.66-6.66h133.8c3.68,0,6.66,2.98,6.66,6.66h0c0,3.68-2.98,6.66-6.66,6.66Z"/>
          <path class="cls-4" d="M929.7,158.67h-232.33c-2.25,0-4.08-1.83-4.08-4.08h0c0-2.25,1.83-4.08,4.08-4.08h232.33c2.25,0,4.08,1.83,4.08,4.08h0c0,2.25-1.83,4.08-4.08,4.08Z"/>
          <path class="cls-4" d="M929.7,181.31h-232.33c-2.25,0-4.08-1.83-4.08-4.08h0c0-2.25,1.83-4.08,4.08-4.08h232.33c2.25,0,4.08,1.83,4.08,4.08h0c0,2.25-1.83,4.08-4.08,4.08Z"/>
          <path class="cls-4" d="M879.03,205.44h-181.65c-2.25,0-4.08-1.83-4.08-4.08h0c0-2.25,1.83-4.08,4.08-4.08h181.65c2.25,0,4.08,1.83,4.08,4.08h0c0,2.25-1.83,4.08-4.08,4.08Z"/>
          <path class="cls-1" d="M927.88,119.9h-63.83c-3.68,0-6.66-2.98-6.66-6.66h0c0-3.68,2.98-6.66,6.66-6.66h63.83c3.68,0,6.66,2.98,6.66,6.66h0c0,3.68-2.98,6.66-6.66,6.66Z"/>
        </g>
        <g>
          <rect class="cls-1" x="689.7" y="355.05" width="82.13" height="59.16" rx="2" ry="2"/>
          <g>
            <path class="cls-26" d="M731.27,393.47c-.41,0-.82-.14-1.15-.41l-39.44-32.58c-.77-.64-.88-1.78-.24-2.55,.64-.77,1.78-.88,2.55-.24l38.26,31.6,37.29-32.44c.75-.65,1.9-.58,2.55,.18,.66,.75,.58,1.9-.18,2.55l-38.44,33.45c-.34,.3-.76,.44-1.19,.44Z"/>
            <path class="cls-26" d="M691.82,412.86c-.45,0-.9-.17-1.25-.5-.73-.69-.75-1.83-.06-2.56l27.59-29c.68-.72,1.84-.76,2.56-.06,.73,.69,.75,1.83,.06,2.56l-27.59,29c-.35,.37-.83,.56-1.31,.56Z"/>
            <path class="cls-26" d="M769.71,411.8c-.46,0-.93-.18-1.28-.53l-27.48-27.55c-.7-.71-.7-1.85,0-2.56,.71-.71,1.85-.7,2.56,0l27.48,27.55c.7,.71,.7,1.85,0,2.56-.35,.35-.82,.53-1.28,.53Z"/>
          </g>
          <g>
            <circle class="cls-17" cx="775.6" cy="353.22" r="24.21"/>
            <text class="cls-2" transform="translate(758.58 363.44)"><tspan x="0" y="0">85</tspan></text>
          </g>
        </g>
        <g>
          <rect class="cls-6" x="867.69" y="302.87" width="160.76" height="41.44" rx="4" ry="4"/>
          <path class="cls-1" d="M887.55,334.46c-.63,0-1.14-.23-1.53-.68-.39-.45-.56-1.02-.51-1.7l.61-5.37c.04-.14,.02-.23-.07-.27-.09-.04-.2-.02-.34,.07l-4.41,3.19c-.54,.41-1.11,.56-1.7,.44-.59-.11-1.06-.46-1.43-1.05-.41-.72-.49-1.36-.24-1.9s.67-.93,1.26-1.15l4.96-2.24c.14-.04,.2-.11,.2-.2s-.07-.16-.2-.2l-4.96-2.24c-.63-.27-1.04-.7-1.22-1.29-.18-.59-.11-1.18,.2-1.77,.36-.59,.84-.94,1.43-1.05,.59-.11,1.15,.01,1.7,.37l4.41,3.26c.14,.09,.25,.11,.34,.07,.09-.04,.11-.14,.07-.27l-.61-5.37c-.05-.68,.14-1.24,.54-1.7,.41-.45,.95-.68,1.63-.68,.63,0,1.15,.23,1.56,.68,.41,.45,.57,1.02,.47,1.7l-.61,5.37c-.05,.14-.02,.23,.07,.27,.09,.05,.2,.02,.34-.07l4.41-3.19c.54-.41,1.12-.55,1.73-.44,.61,.11,1.07,.47,1.39,1.05,.41,.73,.49,1.36,.24,1.9-.25,.54-.67,.93-1.26,1.15l-4.96,2.24c-.14,.05-.2,.11-.2,.2s.07,.16,.2,.2l4.96,2.24c.63,.27,1.05,.7,1.26,1.29,.2,.59,.13,1.18-.24,1.77-.32,.59-.78,.94-1.39,1.05-.61,.11-1.19-.01-1.73-.37l-4.41-3.26c-.14-.09-.25-.11-.34-.07-.09,.05-.11,.14-.07,.27l.61,5.37c.09,.68-.08,1.24-.51,1.7-.43,.45-.99,.68-1.66,.68Z"/>
          <path class="cls-1" d="M916.81,334.46c-.63,0-1.14-.23-1.53-.68-.39-.45-.56-1.02-.51-1.7l.61-5.37c.04-.14,.02-.23-.07-.27-.09-.04-.2-.02-.34,.07l-4.41,3.19c-.54,.41-1.11,.56-1.7,.44-.59-.11-1.06-.46-1.43-1.05-.41-.72-.49-1.36-.24-1.9s.67-.93,1.26-1.15l4.96-2.24c.14-.04,.2-.11,.2-.2s-.07-.16-.2-.2l-4.96-2.24c-.63-.27-1.04-.7-1.22-1.29-.18-.59-.11-1.18,.2-1.77,.36-.59,.84-.94,1.43-1.05,.59-.11,1.15,.01,1.7,.37l4.41,3.26c.14,.09,.25,.11,.34,.07,.09-.04,.11-.14,.07-.27l-.61-5.37c-.05-.68,.14-1.24,.54-1.7,.41-.45,.95-.68,1.63-.68,.63,0,1.15,.23,1.56,.68,.41,.45,.57,1.02,.47,1.7l-.61,5.37c-.05,.14-.02,.23,.07,.27,.09,.05,.2,.02,.34-.07l4.41-3.19c.54-.41,1.12-.55,1.73-.44,.61,.11,1.07,.47,1.39,1.05,.41,.73,.49,1.36,.24,1.9-.25,.54-.67,.93-1.26,1.15l-4.96,2.24c-.14,.05-.2,.11-.2,.2s.07,.16,.2,.2l4.96,2.24c.63,.27,1.05,.7,1.26,1.29,.2,.59,.13,1.18-.24,1.77-.32,.59-.78,.94-1.39,1.05-.61,.11-1.19-.01-1.73-.37l-4.41-3.26c-.14-.09-.25-.11-.34-.07-.09,.05-.11,.14-.07,.27l.61,5.37c.09,.68-.08,1.24-.51,1.7-.43,.45-.99,.68-1.66,.68Z"/>
          <path class="cls-1" d="M946.07,334.46c-.63,0-1.14-.23-1.53-.68-.39-.45-.56-1.02-.51-1.7l.61-5.37c.04-.14,.02-.23-.07-.27-.09-.04-.2-.02-.34,.07l-4.41,3.19c-.54,.41-1.11,.56-1.7,.44-.59-.11-1.06-.46-1.43-1.05-.41-.72-.49-1.36-.24-1.9s.67-.93,1.26-1.15l4.96-2.24c.14-.04,.2-.11,.2-.2s-.07-.16-.2-.2l-4.96-2.24c-.63-.27-1.04-.7-1.22-1.29-.18-.59-.11-1.18,.2-1.77,.36-.59,.84-.94,1.43-1.05,.59-.11,1.15,.01,1.7,.37l4.41,3.26c.14,.09,.25,.11,.34,.07,.09-.04,.11-.14,.07-.27l-.61-5.37c-.05-.68,.14-1.24,.54-1.7,.41-.45,.95-.68,1.63-.68,.63,0,1.15,.23,1.56,.68,.41,.45,.57,1.02,.47,1.7l-.61,5.37c-.05,.14-.02,.23,.07,.27,.09,.05,.2,.02,.34-.07l4.41-3.19c.54-.41,1.12-.55,1.73-.44,.61,.11,1.07,.47,1.39,1.05,.41,.73,.49,1.36,.24,1.9-.25,.54-.67,.93-1.26,1.15l-4.96,2.24c-.14,.05-.2,.11-.2,.2s.07,.16,.2,.2l4.96,2.24c.63,.27,1.05,.7,1.26,1.29,.2,.59,.13,1.18-.24,1.77-.32,.59-.78,.94-1.39,1.05-.61,.11-1.19-.01-1.73-.37l-4.41-3.26c-.14-.09-.25-.11-.34-.07-.09,.05-.11,.14-.07,.27l.61,5.37c.09,.68-.08,1.24-.51,1.7-.43,.45-.99,.68-1.66,.68Z"/>
          <path class="cls-1" d="M975.33,334.46c-.63,0-1.14-.23-1.53-.68-.39-.45-.56-1.02-.51-1.7l.61-5.37c.04-.14,.02-.23-.07-.27-.09-.04-.2-.02-.34,.07l-4.41,3.19c-.54,.41-1.11,.56-1.7,.44-.59-.11-1.06-.46-1.43-1.05-.41-.72-.49-1.36-.24-1.9,.25-.54,.67-.93,1.26-1.15l4.96-2.24c.14-.04,.2-.11,.2-.2s-.07-.16-.2-.2l-4.96-2.24c-.63-.27-1.04-.7-1.22-1.29-.18-.59-.11-1.18,.2-1.77,.36-.59,.84-.94,1.43-1.05,.59-.11,1.15,.01,1.7,.37l4.41,3.26c.14,.09,.25,.11,.34,.07,.09-.04,.11-.14,.07-.27l-.61-5.37c-.05-.68,.14-1.24,.54-1.7,.41-.45,.95-.68,1.63-.68,.63,0,1.15,.23,1.56,.68,.41,.45,.57,1.02,.47,1.7l-.61,5.37c-.05,.14-.02,.23,.07,.27,.09,.05,.2,.02,.34-.07l4.41-3.19c.54-.41,1.12-.55,1.73-.44,.61,.11,1.07,.47,1.39,1.05,.41,.73,.49,1.36,.24,1.9-.25,.54-.67,.93-1.26,1.15l-4.96,2.24c-.14,.05-.2,.11-.2,.2s.07,.16,.2,.2l4.96,2.24c.63,.27,1.05,.7,1.26,1.29,.2,.59,.13,1.18-.24,1.77-.32,.59-.78,.94-1.39,1.05-.61,.11-1.19-.01-1.73-.37l-4.41-3.26c-.14-.09-.25-.11-.34-.07-.09,.05-.11,.14-.07,.27l.61,5.37c.09,.68-.08,1.24-.51,1.7-.43,.45-.99,.68-1.66,.68Z"/>
          <path class="cls-19" d="M1004.59,334.46c-.63,0-1.14-.23-1.53-.68-.39-.45-.56-1.02-.51-1.7l.61-5.37c.04-.14,.02-.23-.07-.27-.09-.04-.2-.02-.34,.07l-4.41,3.19c-.54,.41-1.11,.56-1.7,.44-.59-.11-1.06-.46-1.43-1.05-.41-.72-.49-1.36-.24-1.9s.67-.93,1.26-1.15l4.96-2.24c.14-.04,.2-.11,.2-.2s-.07-.16-.2-.2l-4.96-2.24c-.63-.27-1.04-.7-1.22-1.29-.18-.59-.11-1.18,.2-1.77,.36-.59,.84-.94,1.43-1.05,.59-.11,1.15,.01,1.7,.37l4.41,3.26c.14,.09,.25,.11,.34,.07,.09-.04,.11-.14,.07-.27l-.61-5.37c-.05-.68,.14-1.24,.54-1.7,.41-.45,.95-.68,1.63-.68,.63,0,1.15,.23,1.56,.68,.41,.45,.57,1.02,.47,1.7l-.61,5.37c-.05,.14-.02,.23,.07,.27,.09,.05,.2,.02,.34-.07l4.41-3.19c.54-.41,1.12-.55,1.73-.44,.61,.11,1.07,.47,1.39,1.05,.41,.73,.49,1.36,.24,1.9-.25,.54-.67,.93-1.26,1.15l-4.96,2.24c-.14,.05-.2,.11-.2,.2s.07,.16,.2,.2l4.96,2.24c.63,.27,1.05,.7,1.26,1.29,.2,.59,.13,1.18-.24,1.77-.32,.59-.78,.94-1.39,1.05-.61,.11-1.19-.01-1.73-.37l-4.41-3.26c-.14-.09-.25-.11-.34-.07-.09,.05-.11,.14-.07,.27l.61,5.37c.09,.68-.08,1.24-.51,1.7-.43,.45-.99,.68-1.66,.68Z"/>
        </g>
      </g>
    </g>
  </g>
</svg>